<svg xmlns="http://www.w3.org/2000/svg" width="25.125" height="25.125" viewBox="0 0 25.125 25.125">
  <path id="sign-in" d="M12.563.563A12.563,12.563,0,1,0,25.125,13.125,12.56,12.56,0,0,0,12.563.563Zm0,4.863A4.458,4.458,0,1,1,8.1,9.883,4.458,4.458,0,0,1,12.563,5.425Zm0,17.425A9.707,9.707,0,0,1,5.142,19.4a5.648,5.648,0,0,1,4.99-3.029,1.239,1.239,0,0,1,.36.056,6.707,6.707,0,0,0,2.072.35,6.681,6.681,0,0,0,2.072-.35,1.239,1.239,0,0,1,.36-.056,5.648,5.648,0,0,1,4.99,3.029A9.707,9.707,0,0,1,12.563,22.851Z" transform="translate(0 -0.563)" fill="#fff"/>
</svg>
